<?xml version="1.0" standalone="no"?>
<!DOCTYPE svg PUBLIC "-//W3C//DTD SVG 1.1//EN" "http://www.w3.org/Graphics/SVG/1.1/DTD/svg11.dtd" >
<svg xmlns="http://www.w3.org/2000/svg">
<metadata></metadata>
<defs>
<font id="exo_2medium" horiz-adv-x="905" >
<font-face units-per-em="2048" ascent="1638" descent="-410" />
<missing-glyph horiz-adv-x="454" />
<glyph horiz-adv-x="0" />
<glyph horiz-adv-x="682" />
<glyph unicode=" "  horiz-adv-x="454" />
<glyph unicode="&#x09;" horiz-adv-x="454" />
<glyph unicode="&#xa0;" horiz-adv-x="454" />
<glyph unicode="!" horiz-adv-x="567" d="M184 811v612h199v-612l-21 -375h-157zM188 74v108q0 40 16 56t56 16h49q40 0 57 -16.5t17 -55.5v-108q0 -41 -17 -57.5t-57 -16.5h-49q-40 0 -56 16.5t-16 57.5z" />
<glyph unicode="&#x22;" horiz-adv-x="733" d="M137 1413h160l-12 -442h-135zM438 1413h160l-12 -442h-135z" />
<glyph unicode="#" horiz-adv-x="1409" d="M84 430l25 125h233l61 354h-233l25 125h231l66 379h157l-65 -379h356l66 379h157l-65 -379h225l-25 -125h-223l-61 -354h223l-25 -125h-219l-75 -430h-158l76 430h-357l-76 -430h-157l76 430h-238zM500 555h356l62 354h-357z" />
<glyph unicode="$" horiz-adv-x="1157" d="M113 1065q0 98 19 165t52 108t93.5 63t128.5 29.5t172 7.5h20l16 196h103l-15 -198q183 -11 302 -41l-13 -150q-166 7 -303 10l-35 -456l117 -33q158 -43 222.5 -139t64.5 -262q0 -98 -18.5 -166t-53 -112t-95.5 -68.5t-134.5 -34t-182.5 -9.5l-18 -231h-104l18 233 q-172 8 -338 39l14 158q261 -6 340 -8l37 461l-129 37q-151 42 -215.5 138.5t-64.5 262.5zM319 1059q0 -71 19 -113.5t54 -63.5t100 -38l59 -17l33 428q-65 0 -100.5 -2.5t-72.5 -13t-54 -31.5t-27.5 -57t-10.5 -92zM588 166q154 0 207 39t53 162q0 57 -9 94t-32 61 t-51 36.5t-76 25.5l-57 16z" />
<glyph unicode="%" horiz-adv-x="1835" d="M90 1020q0 229 74.5 324.5t259.5 95.5t259.5 -95.5t74.5 -324.5q0 -228 -75 -324t-259 -96t-259 96t-75 324zM242 1020q0 -168 39 -232.5t141 -64.5q105 0 143.5 64t38.5 233q0 168 -38.5 232.5t-143.5 64.5q-102 0 -141 -65t-39 -232zM393 0l903 1413h140l-904 -1413 h-139zM1077 399q0 228 75 324t259 96q183 0 257.5 -96t74.5 -324q0 -229 -74.5 -324t-257.5 -95q-185 0 -259.5 95t-74.5 324zM1229 399q-2 -168 37 -232.5t143 -64.5t143 64.5t39 232.5q0 169 -39 232t-143 63t-142.5 -63t-37.5 -232z" />
<glyph unicode="&#x26;" horiz-adv-x="1576" d="M131 358q0 170 64.5 264t214.5 107v8q-128 12 -183 92t-55 238q0 70 10.5 123.5t29.5 93t53.5 66.5t73.5 44t99 26t122 12.5t149 3.5q183 0 327 -23l-24 -153q-85 6 -310 6q-79 0 -128 -5t-89.5 -18t-61.5 -39t-31.5 -65.5t-10.5 -100.5q0 -135 55 -182t203 -47h369 l16 252h166v-252h252l-2 -156h-250v-370q0 -71 28 -100t97 -29h145l23 -146q-91 -26 -223 -26q-104 0 -167.5 44t-82.5 126q-89 -95 -195.5 -135t-267.5 -40q-226 0 -321 85t-95 296zM348 393q0 -137 52.5 -187t197.5 -50q257 3 406 149v348h-377q-159 0 -219 -54.5 t-60 -205.5z" />
<glyph unicode="'" horiz-adv-x="432" d="M137 1413h160l-12 -442h-135z" />
<glyph unicode="(" horiz-adv-x="737" d="M104 639q0 400 132.5 637.5t416.5 341.5l25 -92q-198 -95 -289.5 -314t-91.5 -571q0 -346 91.5 -566t289.5 -321l-25 -92q-284 105 -416.5 342.5t-132.5 634.5z" />
<glyph unicode=")" horiz-adv-x="737" d="M59 -246q198 101 289.5 321t91.5 566q0 352 -91.5 571t-289.5 314l25 92q284 -104 417.5 -342t133.5 -637q0 -397 -133.5 -634t-417.5 -343z" />
<glyph unicode="*" horiz-adv-x="921" d="M102 1124l39 111l242 -94l-2 -51l-25 -33zM209 821l209 262l-17 332h119l-20 -332l209 -264l-95 -69l-155 254l-154 -252zM537 1090v51l243 94l37 -113l-254 -65z" />
<glyph unicode="+" horiz-adv-x="1126" d="M111 539v147h374v358h154v-358h375v-147h-377v-357h-150v357h-376z" />
<glyph unicode="," horiz-adv-x="475" d="M133 63v119q3 40 20.5 56t57.5 16h57q39 0 54.5 -16t15.5 -56v-131q-3 -181 -78 -325l-94 24q22 116 22 250q-26 0 -40.5 17t-14.5 46z" />
<glyph unicode="-" d="M141 442v152h623v-152h-623z" />
<glyph unicode="." horiz-adv-x="477" d="M133 74v108q0 40 16.5 56t57.5 16h63q41 0 57.5 -16t16.5 -56v-108q0 -41 -16.5 -57.5t-57.5 -16.5h-63q-41 0 -57.5 16.5t-16.5 57.5z" />
<glyph unicode="/" horiz-adv-x="1069" d="M51 -137l805 1550h162l-805 -1550h-162z" />
<glyph unicode="0" horiz-adv-x="1243" d="M125 707q0 395 111.5 564t384.5 169q139 0 233 -40.5t152.5 -131.5t84 -226.5t25.5 -334.5q0 -159 -16 -276.5t-51.5 -206t-94 -143t-140.5 -81.5t-193 -27q-273 0 -384.5 169.5t-111.5 564.5zM326 707q0 -208 27 -326.5t90 -173.5t175 -55q169 0 234.5 123.5t65.5 431.5 t-65.5 431.5t-234.5 123.5q-112 0 -175 -55t-90 -173.5t-27 -326.5z" />
<glyph unicode="1" horiz-adv-x="823" d="M41 1270l354 143h205v-1413h-205v1094q0 68 11 127l-340 -105z" />
<glyph unicode="2" horiz-adv-x="1153" d="M111 0v129q0 56 30 86l394 444q135 146 197 254t59 203q-3 87 -61 114t-189 27q-194 0 -408 -30l-12 159q233 52 438 52q86 0 149.5 -7.5t120.5 -27.5t92 -54.5t55.5 -89.5t20.5 -131q0 -131 -53 -240.5t-192 -264.5l-394 -433q108 9 226 9h463v-199h-936z" />
<glyph unicode="3" horiz-adv-x="1140" d="M104 10l13 166q238 -20 389 -20q166 0 233.5 57t67.5 203q0 61 -11 103t-39 76t-81.5 50.5t-134.5 16.5h-260v159h260q62 1 106.5 14.5t69 34t38.5 54t17.5 64t3.5 75.5q-2 65 -14.5 103.5t-47 59.5t-81.5 27.5t-131 6.5q-157 0 -361 -17l-14 160q209 37 405 37 q236 0 338.5 -72.5t102.5 -255.5q0 -151 -46.5 -242.5t-160.5 -113.5v-8q132 -22 186.5 -110t57.5 -245q3 -220 -100.5 -320t-352.5 -100q-188 0 -453 37z" />
<glyph unicode="4" horiz-adv-x="1267" d="M92 567l391 846h201l-381 -831q-17 -40 -2.5 -60t51.5 -20h451v409l37 230h157v-639h185v-146l-185 -20v-336h-194v336h-567q-93 0 -137 72.5t-7 158.5z" />
<glyph unicode="5" horiz-adv-x="1101" d="M100 27l25 166q190 -35 356 -35q95 0 156.5 16t94 52t45 81.5t14.5 116.5q1 37 -1 67t-11.5 55t-17.5 43.5t-29.5 34t-36 26t-50 19t-57.5 13.5t-71.5 10.5t-80.5 8.5t-96 8l-107 10q-34 2 -55 26.5t-20 61.5l32 606h760l-8 -176h-586l-20 -352l160 -15 q272 -23 384 -123.5t111 -322.5q0 -74 -10.5 -134t-41 -120.5t-80 -101.5t-133.5 -67t-196 -26q-198 0 -430 52z" />
<glyph unicode="6" horiz-adv-x="1175" d="M131 680q0 123 8 221t26 174.5t42 133t61 97t77 66t95.5 40.5t112.5 20.5t131 5.5q176 0 293 -31l-16 -150q-107 7 -277 7q-98 0 -157 -16.5t-104 -67.5t-64.5 -144.5t-24.5 -247.5q71 77 149.5 107.5t194.5 30.5q222 0 305.5 -102.5t83.5 -360.5q0 -95 -10 -164 t-39 -133.5t-78.5 -104t-131 -63t-194.5 -23.5q-103 0 -176 13.5t-128 48.5t-88.5 85.5t-54.5 133.5t-28.5 182t-7.5 242zM332 643q0 -79 2 -131.5t7 -106.5t13 -86.5t23 -64t35.5 -48.5t50 -30.5t66.5 -18.5t87 -5q67 0 113.5 13.5t74.5 36.5t43 64.5t20 85.5t5 111 q0 166 -51.5 231.5t-195.5 65.5q-83 0 -148 -25.5t-145 -91.5z" />
<glyph unicode="7" horiz-adv-x="1052" d="M76 1413h805q66 0 92.5 -35.5t7.5 -97.5l-436 -1280h-205l387 1130q20 62 47 109h-690z" />
<glyph unicode="8" horiz-adv-x="1243" d="M135 352q0 174 53 269t181 108v8q-103 12 -152 97t-49 227q0 102 20 169t70.5 115t139 69.5t223.5 21.5q137 -1 225 -22t139 -69.5t70.5 -115t19.5 -168.5q0 -142 -49 -227t-152 -97v-8q127 -13 180.5 -108.5t53.5 -268.5q0 -101 -21 -167t-75 -114.5t-149 -70.5 t-242 -23q-144 -1 -239 21t-149.5 70.5t-76 116t-21.5 167.5zM328 397q0 -141 59.5 -192t235.5 -51q120 0 181.5 23.5t84 73.5t22.5 146q0 80 -11.5 126.5t-44.5 76.5t-86.5 40.5t-143.5 10.5q-93 -1 -148 -12t-90 -41t-47 -76.5t-12 -124.5zM354 1040q0 -135 53.5 -180 t217.5 -45q86 0 136 9.5t79.5 37t39 67.5t9.5 111q0 68 -10.5 109.5t-40.5 70t-81 39.5t-134 11q-110 0 -167.5 -22t-79.5 -69.5t-22 -138.5z" />
<glyph unicode="9" horiz-adv-x="1175" d="M109 948q-2 254 103.5 372t354.5 118q79 0 139.5 -8t109 -27.5t83 -46t60 -71.5t41 -95t24.5 -125t12.5 -154t3.5 -188q-1 -158 -14 -274t-43 -199.5t-71 -136.5t-106 -84t-139.5 -42.5t-179.5 -11.5q-184 0 -313 31l16 152q98 -6 295 -6q81 0 135.5 13t97.5 44t67.5 87 t38 137t16.5 200q-72 -82 -150.5 -114t-197.5 -32q-383 0 -383 461zM303 948q-2 -153 51.5 -225t192.5 -72q82 0 146.5 26.5t148.5 96.5q0 80 -1.5 131t-6.5 105.5t-13 86.5t-22.5 64t-34 49t-48.5 30.5t-65.5 18.5t-85.5 5q-81 0 -134 -19.5t-81 -62.5t-38 -97.5t-9 -136.5 z" />
<glyph unicode=":" horiz-adv-x="495" d="M135 74v108q0 40 16 56t56 16h65q41 0 57.5 -16t16.5 -56v-108q0 -41 -16.5 -57.5t-57.5 -16.5h-65q-40 0 -56 16.5t-16 57.5zM135 723v111q0 40 16 55.5t56 15.5h65q41 0 57.5 -15.5t16.5 -55.5v-111q0 -40 -16.5 -56t-57.5 -16h-65q-40 0 -56 16t-16 56z" />
<glyph unicode=";" horiz-adv-x="497" d="M145 63l2 119q1 40 18.5 56t57.5 16h58q39 0 54 -16t15 -56v-131q-3 -181 -78 -325l-92 24q21 126 21 250q-26 0 -41 17t-15 46zM145 723v111q0 40 16.5 55.5t57.5 15.5h64q41 0 57 -15.5t16 -55.5v-111q0 -40 -16 -56t-57 -16h-64q-41 0 -57.5 16t-16.5 56z" />
<glyph unicode="&#x3c;" horiz-adv-x="1081" d="M104 532v156l838 354v-157l-668 -275l668 -268v-158z" />
<glyph unicode="=" horiz-adv-x="1198" d="M145 311v148h906v-148h-906zM145 743v148h906v-148h-906z" />
<glyph unicode="&#x3e;" horiz-adv-x="1081" d="M139 184v158l668 268l-668 275v157l838 -354v-156z" />
<glyph unicode="?" horiz-adv-x="1032" d="M78 1415q21 3 75.5 12.5t78.5 13t73 8.5t103.5 7t126.5 2q210 0 313.5 -77.5t103.5 -239.5q0 -62 -19.5 -116.5t-51.5 -96.5t-70.5 -82.5t-77.5 -82.5t-71.5 -87.5t-54.5 -107t-25 -132.5h-168q-2 76 15 143t45.5 116t63 93t70 82t65 74t48.5 77.5t20 84.5 q5 94 -55.5 139t-193.5 45q-198 0 -404 -18zM399 74v108q0 40 16.5 56t57.5 16h49q41 0 57.5 -16t16.5 -56v-108q0 -41 -16.5 -57.5t-57.5 -16.5h-49q-41 0 -57.5 16.5t-16.5 57.5z" />
<glyph unicode="@" horiz-adv-x="1480" d="M145 547q0 93 2 159.5t8.5 130.5t16 107t28 83t40 64.5t57 46.5t74 33t95 19t117 11t142.5 3h297q157 0 236 -70.5t79 -230.5v-633h-147l-21 154q-63 -66 -170 -118t-223 -52q-124 0 -197 64.5t-73 185.5v102q0 102 59.5 157.5t175.5 55.5h410v78q0 82 -35.5 112.5 t-132.5 30.5h-256q-99 0 -150.5 -3t-104 -20.5t-73 -45t-39 -87.5t-22.5 -135.5t-4 -201.5q0 -99 2 -163.5t13.5 -122.5t21 -90.5t41 -59.5t56.5 -38.5t83.5 -19.5t107 -9t140.5 -1h534v-147q-334 -19 -532 -19q-117 -1 -197.5 2.5t-152.5 17.5t-116.5 33t-81.5 58.5t-56 84 t-32 119t-16.5 155t-3.5 200.5zM690 539q0 -68 31.5 -97.5t93.5 -29.5q85 0 179 33.5t157 93.5v159l-340 -8q-69 -3 -95 -26t-26 -82v-43z" />
<glyph unicode="A" horiz-adv-x="1282" d="M18 0l443 1358q16 55 76 55h208q27 0 47.5 -14.5t26.5 -40.5l445 -1358h-211l-131 426h-564l-131 -426h-209zM414 604h452l-164 537q-5 19 -17 57t-17 57h-56l-32 -114z" />
<glyph unicode="B" horiz-adv-x="1273" d="M172 0v1413q176 17 471 17q135 0 221.5 -16.5t145 -59t82.5 -113t24 -180.5q0 -154 -56.5 -233t-182.5 -91v-8q153 -13 217.5 -106.5t64.5 -270.5q0 -110 -24.5 -180.5t-81 -112.5t-139 -58.5t-209.5 -16.5q-346 0 -533 16zM373 160l301 -2q161 0 219.5 46t58.5 183 q0 155 -61.5 209.5t-228.5 56.5h-289v-493zM373 811h286q148 0 204.5 46.5t56.5 178.5q0 130 -61.5 174.5t-225.5 44.5h-260v-444z" />
<glyph unicode="C" horiz-adv-x="1171" d="M121 707q0 205 29 342t96.5 225t172 126t261.5 38q131 0 214.5 -9t176.5 -32l-20 -158q-164 16 -371 16q-132 0 -205.5 -51t-106 -168.5t-32.5 -328.5q0 -127 11 -217t35 -155.5t65 -103.5t97 -55.5t136 -17.5q258 0 399 22l21 -155q-173 -50 -420 -50 q-209 0 -329.5 71.5t-175 229.5t-54.5 431z" />
<glyph unicode="D" horiz-adv-x="1361" d="M172 0v1413q285 19 510 19q105 0 184.5 -15.5t143 -50.5t106.5 -90t71.5 -137t41 -187.5t12.5 -244.5t-12.5 -244.5t-41 -187.5t-71.5 -137t-106.5 -90t-143 -50.5t-184.5 -15.5q-240 0 -510 18zM377 164q176 -4 305 -4q99 0 163 27t104.5 92.5t57.5 167.5t17 260 q0 209 -32.5 326t-105.5 168.5t-204 51.5q-125 0 -305 -4v-1085z" />
<glyph unicode="E" horiz-adv-x="1150" d="M160 250v913q2 117 78 185.5t206 68.5q421 0 607 -16l-11 -160h-561q-62 0 -87 -29.5t-25 -101.5v-283h596v-165h-596v-361q0 -72 25 -101.5t87 -29.5h561l11 -158q-186 -16 -607 -16q-131 0 -206.5 68t-77.5 186z" />
<glyph unicode="F" horiz-adv-x="1105" d="M168 0v1153q0 125 76.5 194.5t208.5 69.5q405 0 585 -18l-10 -158h-524q-71 0 -101 -29.5t-30 -101.5v-305h577v-166l-577 -2v-637h-205z" />
<glyph unicode="G" horiz-adv-x="1288" d="M121 713q0 172 20.5 293t63 206.5t115.5 134.5t169.5 71t233.5 22q222 0 393 -43l-20 -156q-172 16 -361 16q-79 0 -132.5 -7.5t-101 -29t-76 -59.5t-49.5 -101t-29.5 -150.5t-8.5 -211.5q0 -305 62.5 -425.5t220.5 -120.5q92 0 168 32t165 92v539h201v-815h-151l-21 141 q-181 -168 -420 -168q-233 0 -337.5 178t-104.5 562z" />
<glyph unicode="H" horiz-adv-x="1372" d="M172 0v1413h205v-571h618v571h205v-1413h-205v666h-618v-666h-205z" />
<glyph unicode="I" horiz-adv-x="548" d="M172 0v1413h205v-1413h-205z" />
<glyph unicode="J" horiz-adv-x="702" d="M57 8l23 148h100q152 0 152 143v1114h205v-1104q0 -161 -72 -245q-70 -82 -201 -82h-6q-121 0 -201 26z" />
<glyph unicode="K" horiz-adv-x="1222" d="M172 0v1413h205v-434q0 -83 -15 -160h160l416 594h223l-399 -577q-35 -51 -86 -99v-6q57 -49 98 -106l414 -625h-227l-437 653h-162q15 -92 15 -145v-508h-205z" />
<glyph unicode="L" horiz-adv-x="1054" d="M168 274v1139h205v-1110q0 -72 29 -101.5t100 -29.5h502l10 -158q-198 -18 -545 -18q-301 0 -301 278z" />
<glyph unicode="M" horiz-adv-x="1804" d="M145 0l54 1329q2 40 23.5 62t60.5 22h227q64 0 86 -70l240 -827q26 -95 47 -190h37q19 91 49 192l237 825q22 70 90 70h224q39 0 60.5 -22t23.5 -62l57 -1329h-205l-49 1243h-41l-287 -1005q-18 -70 -88 -70h-178q-72 0 -90 70l-289 1005h-39l-47 -1243h-203z" />
<glyph unicode="N" horiz-adv-x="1449" d="M172 0v1333q0 80 78 80h188q61 0 90 -63l428 -938q90 -189 99 -211h30q-10 123 -10 219v993h203v-1333q0 -80 -76 -80h-194q-62 0 -88 63l-441 963q-72 152 -84 197h-28q10 -83 10 -197v-1026h-205z" />
<glyph unicode="O" horiz-adv-x="1370" d="M121 707q0 211 29 349t97 225t173 123t264 36q213 0 334 -68.5t176 -226t55 -438.5t-55 -439t-176 -226.5t-334 -68.5q-212 0 -332.5 68.5t-175.5 227t-55 438.5zM336 707q0 -213 32.5 -330.5t107 -169t208.5 -51.5q135 0 210 51.5t107.5 169t32.5 330.5q0 160 -17 263 t-58.5 168.5t-107 92t-167.5 26.5q-101 0 -166 -26.5t-106.5 -92t-58.5 -168.5t-17 -263z" />
<glyph unicode="P" horiz-adv-x="1212" d="M172 0v1413q185 19 492 19q134 0 219.5 -20.5t141.5 -73t78.5 -136.5t22.5 -217q0 -134 -22 -219t-76 -137t-134 -72t-206 -20q-153 0 -311 18v-555h-205zM377 713h282q102 1 156.5 24.5t79.5 81t25 166.5q0 159 -55.5 214.5t-205.5 55.5q-204 0 -282 -2v-540z" />
<glyph unicode="Q" horiz-adv-x="1374" d="M121 707q0 211 29 349t98 225t173.5 123t264.5 36q213 0 334 -68.5t176 -226t55 -438.5t-55 -439t-176 -226.5t-334 -68.5q-212 0 -333 68.5t-176.5 227t-55.5 438.5zM338 707q0 -213 32.5 -330.5t107 -169t208.5 -51.5t209 51.5t108 169.5t33 330t-33 330t-107.5 169 t-209.5 51q-101 0 -166 -26.5t-106.5 -92t-58.5 -168.5t-17 -263zM545 -209l55 125q238 -94 559 -139l-65 -205q-261 56 -549 219z" />
<glyph unicode="R" horiz-adv-x="1269" d="M172 0v1413q185 19 494 19q128 0 213.5 -19.5t144 -67t84 -126t25.5 -197.5q0 -169 -61 -255t-200 -105v-11q59 -17 108 -68t71 -137l133 -446h-219l-121 440q-24 76 -67 109t-111 33l-291 2v-584h-203zM375 758h287q151 2 207.5 54.5t56.5 197.5q0 144 -56 194.5 t-208 50.5q-209 0 -287 -2v-495z" />
<glyph unicode="S" horiz-adv-x="1153" d="M109 1065q0 82 11.5 141.5t38.5 101t61.5 67t91 39.5t116 19t145.5 5q250 0 426 -43l-12 -150q-297 10 -405 10q-48 0 -76 -1t-60.5 -5t-50 -12t-35.5 -22t-26.5 -35t-13.5 -51t-5 -70q0 -104 37.5 -147t132.5 -68l281 -78q158 -43 222.5 -139t64.5 -262 q0 -98 -18.5 -166t-52.5 -112t-95 -68.5t-134.5 -34t-181.5 -9.5q-226 0 -444 41l14 152q320 -10 434 -10q83 1 130.5 8.5t81 30.5t45.5 63t12 107q0 57 -9.5 94t-32.5 61t-50.5 36.5t-75.5 25.5l-287 80q-151 42 -215.5 138.5t-64.5 262.5z" />
<glyph unicode="T" horiz-adv-x="1196" d="M49 1231v182h1100v-182h-449v-1231h-206v1231h-445z" />
<glyph unicode="U" horiz-adv-x="1363" d="M162 545v868h205v-868q0 -218 69 -303.5t246 -85.5q174 0 244.5 86t70.5 303v868h205v-868q0 -311 -116 -441.5t-396 -130.5q-289 0 -408.5 130t-119.5 442z" />
<glyph unicode="V" horiz-adv-x="1253" d="M31 1413h211l319 -1100q18 -65 39 -155h55q9 45 39 155l318 1100h211l-418 -1356q-8 -25 -29.5 -41t-48.5 -16h-201q-27 0 -48 16t-29 41z" />
<glyph unicode="W" horiz-adv-x="1947" d="M61 1413h218l202 -1077q10 -52 25 -180h47q9 77 31 180l202 1010q6 30 27 48.5t51 18.5h219q29 0 50.5 -18.5t27.5 -48.5l201 -1012q19 -95 31 -178h47q5 28 13 88t13 88l203 1081h217l-270 -1354q-8 -27 -29 -43t-51 -16h-227q-30 0 -52 16.5t-28 44.5l-205 1039 q-24 128 -29 160h-43q-3 -18 -9 -51t-11 -59.5t-10 -49.5l-203 -1039q-4 -27 -27 -44t-53 -17h-229q-29 0 -50.5 16.5t-27.5 42.5z" />
<glyph unicode="X" horiz-adv-x="1259" d="M45 0l389 731l-362 682h221l309 -602h53l310 602h221l-363 -682l389 -731h-223l-336 655h-49l-336 -655h-223z" />
<glyph unicode="Y" horiz-adv-x="1175" d="M18 1413h218l284 -579q21 -42 62 -164h14q42 124 61 161l285 582h213l-465 -924v-489h-205v494z" />
<glyph unicode="Z" horiz-adv-x="1163" d="M98 0v174l729 1065h-718v174h944v-174l-729 -1065h743v-174h-969z" />
<glyph unicode="[" horiz-adv-x="679" d="M182 -219v1673q0 52 33 85.5t86 33.5h297v-129h-199q-13 0 -21.5 -9.5t-8.5 -23.5v-1587q0 -14 8.5 -23.5t21.5 -9.5h199v-129h-297q-119 0 -119 119z" />
<glyph unicode="\" horiz-adv-x="1071" d="M51 1413h164l805 -1550h-164z" />
<glyph unicode="]" horiz-adv-x="679" d="M82 -209h197q15 0 23.5 9.5t8.5 23.5v1587q0 14 -8.5 23.5t-23.5 9.5h-197v129h297q53 0 86 -33.5t33 -85.5v-1673q0 -53 -33 -86t-86 -33h-297v129z" />
<glyph unicode="^" horiz-adv-x="886" d="M61 803l312 436h143l309 -436l-80 -49l-292 354h-17l-295 -354z" />
<glyph unicode="_" horiz-adv-x="1179" d="M141 0h897v-150h-897v150z" />
<glyph unicode="`" horiz-adv-x="659" d="M51 1335l111 152l362 -299l-65 -92z" />
<glyph unicode="a" horiz-adv-x="1128" d="M100 264v105q0 120 74 184.5t209 64.5h401v78q-2 93 -43 127.5t-155 34.5q-112 0 -424 -24l-19 145q265 47 486 47q181 0 267.5 -74t86.5 -256v-696h-156l-22 158q-69 -70 -172.5 -123t-226.5 -53q-139 0 -222.5 74t-83.5 208zM301 289q0 -73 35 -106t110 -33t166.5 35 t171.5 106v178h-364q-66 -3 -92.5 -34.5t-26.5 -92.5v-53z" />
<glyph unicode="b" horiz-adv-x="1173" d="M150 47v1387h198v-359q0 -137 -20 -227q169 178 377 178q187 0 274.5 -122.5t87.5 -399.5q0 -132 -21.5 -225.5t-72 -164t-139 -105t-218.5 -34.5q-111 0 -241.5 19t-224.5 53zM346 715l2 -543q123 -31 243 -31h21q136 2 192.5 82t57.5 281q-1 103 -10 165.5t-34.5 106.5 t-69 61t-113.5 17q-69 0 -131.5 -33t-157.5 -106z" />
<glyph unicode="c" horiz-adv-x="1005" d="M106 500q0 289 108 407.5t370 118.5q200 0 331 -51l-26 -127q-153 10 -271 10q-117 0 -181 -31.5t-94 -108.5t-30 -218t30 -218t94 -109t181 -32q162 0 295 23l19 -133q-151 -56 -348 -56q-263 0 -370.5 118t-107.5 407z" />
<glyph unicode="d" horiz-adv-x="1177" d="M109 504q0 194 43 310t124.5 164t212.5 48q189 0 345 -90q-9 99 -9 197v301h199v-1434h-156l-16 137q-188 -162 -393 -162q-184 0 -267 132t-83 397zM313 506q0 -142 22.5 -220.5t67 -108.5t123.5 -30q75 0 134 26.5t165 98.5v533q-98 26 -158.5 37.5t-127.5 11.5 q-86 0 -132.5 -27.5t-70 -103t-23.5 -217.5z" />
<glyph unicode="e" horiz-adv-x="1103" d="M106 502q0 197 49.5 312t148.5 163.5t265 48.5q229 0 334 -84t105 -252q0 -138 -60.5 -212.5t-183.5 -74.5h-449q7 -81 27 -132.5t58.5 -80t87.5 -39t126 -10.5q124 0 351 25l18 -131q-68 -30 -180.5 -45t-214.5 -15q-262 0 -372 119.5t-110 407.5zM311 557h400 q98 0 98 133q-2 92 -52.5 130t-176.5 38q-101 0 -156 -26t-82 -90.5t-31 -184.5z" />
<glyph unicode="f" horiz-adv-x="788" d="M55 846v143l181 10v175q0 146 69 220t227 74q193 0 289 -14l-16 -147h-203q-93 0 -130.5 -35.5t-37.5 -120.5v-152h309v-153h-309v-846h-198v846h-181z" />
<glyph unicode="g" horiz-adv-x="1148" d="M78 -102q0 82 37 132.5t123 96.5q-64 56 -64 142v18q8 98 78 151q-69 36 -100 100.5t-31 163.5q0 176 96 250t340 74q149 0 240 -27h309l-10 -106l-142 -14q35 -63 35 -174q0 -171 -97 -245.5t-337 -74.5q-114 0 -199 16q-19 -30 -21 -62.5t19.5 -59t65.5 -33.5l368 -58 q142 -21 202.5 -88.5t60.5 -195.5q0 -91 -24 -150t-82 -96t-148 -52.5t-230 -15.5q-276 0 -382.5 67t-106.5 241zM270 -86q0 -52 11.5 -81.5t47.5 -47t88.5 -22.5t147.5 -5q176 0 233.5 30t57.5 126q0 70 -31 91.5t-139 37.5l-321 41q-49 -41 -72 -79t-23 -91zM301 705 q0 -93 56.5 -131.5t197.5 -38.5q140 0 195 38.5t55 131.5q0 95 -54.5 132t-195.5 37q-143 0 -198.5 -37t-55.5 -132z" />
<glyph unicode="h" horiz-adv-x="1193" d="M154 0v1434h198l2 -387q0 -121 -14 -195q238 174 436 174q131 0 201 -71t70 -205v-750h-199v692q0 94 -28 130t-99 36q-79 0 -161.5 -34.5t-207.5 -112.5v-711h-198z" />
<glyph unicode="i" horiz-adv-x="520" d="M156 1253v115q0 57 57 57h94q58 0 58 -57v-115q0 -59 -58 -59h-94q-57 0 -57 59zM162 0v999h196v-999h-196z" />
<glyph unicode="j" horiz-adv-x="524" d="M49 -328q60 75 87.5 150t27.5 168v1009h198v-1009q0 -124 -54 -231t-148 -173zM158 1253v115q0 57 59 57h94q58 0 58 -57v-115q0 -59 -58 -59h-94q-59 0 -59 59z" />
<glyph unicode="k" horiz-adv-x="1058" d="M154 0v1434h198l2 -629q0 -87 -12 -170h125l299 364h229l-301 -362q-26 -37 -73 -74v-4q39 -31 73 -86l334 -473h-229l-332 492h-125q10 -88 10 -156v-336h-198z" />
<glyph unicode="l" horiz-adv-x="618" d="M156 244v1190h198l-2 -1145q0 -127 131 -127h92l23 -154q-28 -12 -86 -19t-104 -7q-117 0 -184.5 68t-67.5 194z" />
<glyph unicode="m" horiz-adv-x="1792" d="M154 0v999h163l11 -151q206 178 401 178q204 0 254 -174q198 174 393 174q131 0 200 -70.5t69 -205.5v-750h-195v692q-2 89 -34.5 127.5t-110.5 38.5q-68 0 -129.5 -30.5t-180.5 -116.5v-711h-190v692q0 90 -35 128t-111 38q-66 0 -127.5 -30t-181.5 -115v-713h-196z" />
<glyph unicode="n" horiz-adv-x="1193" d="M154 0v999h168l12 -151q236 178 442 178q132 0 201.5 -70.5t69.5 -205.5v-750h-199v692q0 94 -28 130t-99 36q-78 0 -157.5 -34.5t-213.5 -114.5l2 -709h-198z" />
<glyph unicode="o" horiz-adv-x="1167" d="M106 498q0 288 108.5 408t369.5 120t369 -120t108 -408q0 -286 -108 -405.5t-369 -119.5t-369.5 119.5t-108.5 405.5zM313 498q0 -207 57.5 -283t213.5 -76q155 0 212.5 76t57.5 283q0 210 -57 285t-213 75t-213.5 -75t-57.5 -285z" />
<glyph unicode="p" horiz-adv-x="1196" d="M154 -408v1407h163l15 -153q77 81 192.5 130.5t223.5 49.5q177 0 258 -134t81 -398q0 -191 -43 -306.5t-124.5 -164t-212.5 -48.5q-203 0 -363 101q7 -77 7 -153q0 -25 -1 -50v-281h-196zM350 201q12 -3 47 -12t47.5 -12t41 -9.5t44 -9t39 -6t43.5 -4.5t41 -1 q87 0 134.5 27.5t71.5 103.5t24 218q0 199 -46.5 278.5t-156.5 79.5q-75 0 -151 -34.5t-179 -110.5v-508z" />
<glyph unicode="q" horiz-adv-x="1171" d="M106 498q0 133 21.5 226.5t72.5 163.5t141 104t222 34q105 0 235.5 -19.5t223.5 -54.5v-1360h-197l-2 328q0 116 17 209q-187 -156 -389 -156q-174 0 -259.5 126.5t-85.5 398.5zM311 483q0 -180 43 -258t164 -78q78 0 143 29t164 96v555q-124 31 -243 31h-21 q-96 -2 -148.5 -35t-77 -112.5t-24.5 -227.5z" />
<glyph unicode="r" horiz-adv-x="827" d="M154 0v999h153l21 -153q225 180 420 180h47l-23 -186h-61q-73 0 -149 -26.5t-210 -88.5v-725h-198z" />
<glyph unicode="s" horiz-adv-x="1042" d="M98 748q0 164 89 222q86 56 292 56h15q233 -4 426 -35l-17 -143q-313 10 -379 10h-61.5t-49.5 -1.5t-41.5 -4.5t-30 -8t-24 -13t-14.5 -20t-10 -27t-2 -36q0 -63 27.5 -85.5t101.5 -43.5l12 -3l283 -69q85 -22 133.5 -53.5t74 -86.5t25.5 -141q0 -74 -17 -125t-48.5 -83 t-87 -50t-120.5 -24.5t-161 -6.5q-210 0 -397 29l14 148q127 -11 342 -11q168 0 225.5 24t57.5 99q0 26 -7 44.5t-15.5 29.5t-30.5 21t-36.5 14.5t-47.5 13.5q-10 3 -15 4l-278 70q-124 32 -176 97t-52 188z" />
<glyph unicode="t" horiz-adv-x="794" d="M51 846v143l182 10v293h197v-293h309v-153h-309v-557q0 -70 29.5 -98.5t101.5 -28.5h146l22 -154q-95 -26 -235 -26q-127 0 -194 72.5t-67 207.5v584h-182z" />
<glyph unicode="u" horiz-adv-x="1171" d="M147 250v749h199v-692v-6q0 -88 31 -122q32 -36 112 -36q71 0 144.5 31t187.5 102v723h197v-999h-158l-14 137q-221 -164 -426 -164q-134 0 -203.5 70.5t-69.5 206.5z" />
<glyph unicode="v" horiz-adv-x="1093" d="M33 999h211l233 -688q20 -60 55 -172h27q8 23 28 82t31 90l232 688h211l-356 -950q-19 -49 -70 -49h-178q-52 0 -68 49z" />
<glyph unicode="w" horiz-adv-x="1691" d="M47 999h205l192 -720q26 -109 31 -154h27q29 123 35 154l147 659q6 28 25.5 44.5t48.5 16.5h178q28 0 48 -17t26 -46l145 -657q4 -23 10 -48.5t13.5 -56.5t11.5 -49h27q14 94 30 154l193 720h205l-281 -944q-16 -55 -76 -55h-178q-28 0 -49 17t-27 46l-145 658 q-26 139 -31 160h-24q-5 -27 -16.5 -80t-16.5 -80l-144 -658q-6 -29 -27 -46t-50 -17h-177q-60 0 -73 55z" />
<glyph unicode="x" horiz-adv-x="1091" d="M41 0l328 516l-303 483h213l243 -403h45l244 403h213l-301 -483l328 -516h-215l-271 442h-39l-270 -442h-215z" />
<glyph unicode="y" horiz-adv-x="1091" d="M33 999h213l248 -727q23 -65 34 -122h29q29 84 41 122l246 727h213l-387 -1046q-141 -368 -459 -373l-21 131q117 35 185 96t108 156l15 37h-41q-58 0 -70 51z" />
<glyph unicode="z" horiz-adv-x="1048" d="M98 0v162l625 676h-617v161h836v-161l-623 -676h631v-162h-852z" />
<glyph unicode="{" horiz-adv-x="661" d="M90 602v139q70 23 86 35q27 21 30 86q1 15 1 35v401q0 307 368 275v-125q-102 0 -140 -36.5t-38 -129.5v-354q2 -128 -37 -181t-151 -75q114 -35 154.5 -87t42.5 -161v-473q0 -92 37.5 -128t140.5 -36v-125q-369 -32 -369 275v518q0 69 -22 92.5t-90 49.5q-8 3 -13 5z " />
<glyph unicode="|" horiz-adv-x="509" d="M182 -346v1945h144v-1945h-144z" />
<glyph unicode="}" horiz-adv-x="663" d="M80 -213q103 0 140.5 36t37.5 128v473q2 109 42.5 161t154.5 87q-112 22 -151.5 75t-37.5 181v354q0 93 -38 129.5t-140 36.5v125q192 17 280.5 -54t88.5 -221v-401q0 -60 9.5 -87.5t27 -38t66.5 -26.5q8 -3 13 -4v-139q-73 -29 -89 -43q-35 -29 -35 -104v-518 q0 -150 -88.5 -221t-280.5 -54v125z" />
<glyph unicode="~" horiz-adv-x="1071" d="M154 461q-16 128 29.5 194.5t127.5 63.5q74 -3 221 -57.5t199 -59.5q52 -6 70 18.5t18 88.5h103q15 -125 -30.5 -191.5t-129.5 -60.5q-85 3 -229.5 56t-192.5 58q-52 6 -69 -19t-17 -91h-100z" />
<glyph unicode="&#xa2;" horiz-adv-x="1040" d="M104 715q0 288 108.5 406t371.5 118h16l16 174h103l-17 -180q133 -11 211 -43l-24 -133q-102 12 -203 12l-63 -713q157 0 288 21l19 -133q-141 -51 -322 -54l-20 -190h-101l19 193q-219 15 -310.5 134.5t-91.5 387.5zM301 715q0 -179 49.5 -258.5t171.5 -94.5l60 709 q-158 -6 -219.5 -83.5t-61.5 -272.5z" />
<glyph unicode="&#xa3;" horiz-adv-x="1169" d="M113 686v115h153l-14 264q-5 94 10.5 161t45.5 108t82.5 64.5t111.5 31.5t143 8q152 0 377 -21l-12 -164q-182 7 -361 7q-118 0 -160.5 -41.5t-35.5 -157.5l16 -260h418l-6 -115h-406l8 -139q7 -142 -26 -226.5t-119 -154.5q47 10 139 10h590v-176h-944v176 q99 46 132.5 139.5t25.5 231.5l-9 139h-159z" />
<glyph unicode="&#xa5;" horiz-adv-x="1271" d="M68 1413h213l282 -553q14 -28 36.5 -84.5t31.5 -77.5h14q60 154 64 162l282 553h213l-391 -745h283v-117h-344l-13 -23v-92h357v-117h-357v-319h-204v319h-347l-2 117h349v92l-13 23h-334l-4 117h277z" />
<glyph unicode="&#xa8;" horiz-adv-x="845" d="M158 1262v110q0 55 53 55h65q54 0 54 -55v-110q0 -56 -54 -56h-65q-53 0 -53 56zM520 1262v110q0 55 53 55h66q26 0 40.5 -15t14.5 -40v-110q0 -56 -55 -56h-66q-53 0 -53 56z" />
<glyph unicode="&#xa9;" horiz-adv-x="1703" d="M115 707q0 209 98.5 377.5t267 262t371.5 93.5q204 0 372.5 -93.5t266.5 -262t98 -377.5q0 -157 -57.5 -294t-156 -233t-234.5 -151.5t-289 -55.5q-152 0 -288 55.5t-234.5 151.5t-156.5 233t-58 294zM223 707q0 -133 50 -250.5t135 -200t201 -130.5t243 -48 q171 0 315 81t229 226t85 322t-85 322t-228.5 225.5t-315.5 80.5q-128 0 -243.5 -47.5t-200.5 -130t-135 -200t-50 -250.5zM463 711q0 246 89.5 346t309.5 100q158 0 277 -29l-17 -112q-117 8 -262 8q-138 0 -191 -67.5t-53 -245.5t53 -246t191 -68q176 0 285 13l14 -113 q-121 -33 -297 -33q-220 0 -309.5 100.5t-89.5 346.5z" />
<glyph unicode="&#xab;" horiz-adv-x="1005" d="M88 492v45l328 405l104 -68l-250 -360l252 -367l-104 -69zM469 492v45l328 405l104 -68l-250 -360l252 -367l-104 -69z" />
<glyph unicode="&#xad;" d="M141 442v152h623v-152h-623z" />
<glyph unicode="&#xae;" horiz-adv-x="1122" d="M104 983q0 189 133.5 322t323.5 133q189 0 322 -133t133 -322q0 -190 -133 -323.5t-322 -133.5q-125 0 -230 61t-166 166t-61 230zM174 983q0 -162 113.5 -276.5t273.5 -114.5t273.5 114.5t113.5 276.5q0 161 -113.5 275t-273.5 114t-273.5 -114t-113.5 -275zM356 725 v520q72 6 224 6q115 0 163 -32.5t48 -116.5q0 -60 -28 -92t-91 -39v-4q27 -3 48.5 -22.5t31.5 -55.5l59 -164h-96l-53 160q-22 53 -82 53h-134v-213h-90zM446 1004h132q69 2 95 20t25 68q1 54 -24.5 71t-95.5 17h-132v-176z" />
<glyph unicode="&#xb4;" horiz-adv-x="657" d="M111 1188l362 299l111 -152l-408 -239z" />
<glyph unicode="&#xb8;" horiz-adv-x="483" d="M66 -473l32 104q78 -3 128.5 35t52.5 98q2 33 -22.5 45t-98.5 13l20 92q135 13 190 -13.5t52 -119.5q-3 -134 -102.5 -204t-251.5 -50z" />
<glyph unicode="&#xbb;" horiz-adv-x="1005" d="M102 147l252 367l-250 360l107 68l326 -405v-45l-328 -414zM483 147l252 367l-250 360l105 68l328 -405v-45l-330 -414z" />
<glyph unicode="&#x2c6;" horiz-adv-x="870" d="M98 1198l267 264h145l268 -264l-67 -84l-267 197h-16l-264 -197z" />
<glyph unicode="&#x2da;" horiz-adv-x="618" d="M86 1303q0 93 65 156t158 63q92 0 157.5 -63t65.5 -156t-65 -155.5t-158 -62.5q-94 0 -158.5 62.5t-64.5 155.5zM195 1303q0 -54 32.5 -85.5t81.5 -31.5q51 0 84 31.5t33 85.5t-33 87t-84 33q-50 0 -82 -32.5t-32 -87.5z" />
<glyph unicode="&#x2dc;" horiz-adv-x="868" d="M106 1192q-14 124 32.5 188t127.5 58q53 -4 106 -29t104.5 -50t98.5 -30q55 -7 76 16t21 82h90q15 -118 -30.5 -181.5t-129.5 -57.5q-60 4 -116.5 29t-106.5 51t-90 32q-53 6 -72.5 -19.5t-19.5 -88.5h-91z" />
<glyph unicode="&#x401;" horiz-adv-x="1148" d="M160 250v913q0 117 76 185.5t206 68.5q421 0 607 -16l-9 -160h-563q-62 0 -87 -29.5t-25 -101.5v-283h596v-165h-596v-361q0 -72 25 -101.5t87 -29.5h563l9 -158q-186 -16 -607 -16q-131 0 -206.5 68.5t-75.5 185.5zM365 1661v113q0 53 53 53h65q54 0 54 -53v-113 q0 -53 -54 -53h-65q-53 0 -53 53zM727 1661v113q0 53 55 53h64q26 0 40.5 -14t14.5 -39v-113q0 -53 -55 -53h-64q-29 0 -42 12.5t-13 40.5z" />
<glyph unicode="&#x402;" horiz-adv-x="1542" d="M49 1231v182h1100v-182h-449v-432q187 110 404 110q62 0 110.5 -10t95.5 -38t78.5 -74.5t50.5 -124.5t19 -183q0 -139 -36.5 -237t-106.5 -154t-164 -79.5t-219 -18.5l-19 149q90 6 149.5 22.5t104.5 52t65.5 95.5t20.5 150q0 72 -8.5 121.5t-24 79.5t-44 46t-60 21.5 t-80.5 5.5q-156 0 -336 -96v-637h-206v1231h-445z" />
<glyph unicode="&#x403;" horiz-adv-x="1060" d="M168 0v1139q0 124 75 201t193 77q404 0 586 -18l-8 -158h-510q-72 0 -101.5 -31t-29.5 -110v-1100h-205zM463 1579l362 299l111 -152l-408 -239z" />
<glyph unicode="&#x404;" horiz-adv-x="1183" d="M121 707q0 205 29.5 342t98 225t175.5 126t268 38q230 0 398 -41l-23 -160q-164 16 -375 16q-185 0 -265.5 -94t-92.5 -330l596 -2v-159h-598q2 -146 20.5 -241.5t62 -156t110 -85.5t167.5 -25q245 0 389 20l21 -155q-167 -50 -410 -50q-214 0 -337 71.5t-178.5 229.5 t-55.5 431z" />
<glyph unicode="&#x405;" horiz-adv-x="1153" d="M109 1065q0 82 11.5 141.5t38.5 101t61.5 67t91 39.5t116 19t145.5 5q250 0 426 -43l-12 -150q-297 10 -405 10q-48 0 -76 -1t-60.5 -5t-50 -12t-35.5 -22t-26.5 -35t-13.5 -51t-5 -70q0 -104 37.5 -147t132.5 -68l281 -78q158 -43 222.5 -139t64.5 -262 q0 -98 -18.5 -166t-52.5 -112t-95 -68.5t-134.5 -34t-181.5 -9.5q-226 0 -444 41l14 152q320 -10 434 -10q83 1 130.5 8.5t81 30.5t45.5 63t12 107q0 57 -9.5 94t-32.5 61t-50.5 36.5t-75.5 25.5l-287 80q-151 42 -215.5 138.5t-64.5 262.5z" />
<glyph unicode="&#x406;" horiz-adv-x="548" d="M172 0v1413h205v-1413h-205z" />
<glyph unicode="&#x407;" horiz-adv-x="548" d="M6 1620v111q0 55 53 55h66q53 0 53 -55v-111q0 -29 -12.5 -42t-40.5 -13h-66q-28 0 -40.5 13t-12.5 42zM172 0v1413h205v-1413h-205zM369 1620v111q0 55 55 55h63q26 0 41 -14.5t15 -40.5v-111q0 -55 -56 -55h-63q-29 0 -42 13t-13 42z" />
<glyph unicode="&#x408;" horiz-adv-x="702" d="M57 8l23 148h100q152 0 152 143v1114h205v-1104q0 -161 -72 -245t-207 -82q-121 0 -201 26z" />
<glyph unicode="&#x409;" horiz-adv-x="1988" d="M43 137q58 21 105.5 64.5t91.5 128.5q16 31 28.5 62t23 72t18 68.5t15 82.5t11 81t10 98.5t9 100t9 119t9.5 125.5q18 274 307 274h471v-559h276q265 0 368 -95.5t103 -340.5q0 -129 -23.5 -212.5t-79 -133t-135 -69t-202.5 -19.5q-327 0 -510 16l2 12v1235h-252 q-63 0 -92 -35t-35 -104q-38 -401 -61.5 -553t-77.5 -283q-62 -142 -147.5 -205.5t-225.5 -70.5zM1151 164l276 -2q160 0 212.5 51.5t52.5 206.5q0 77 -10.5 123.5t-39.5 80t-80.5 47t-134.5 13.5h-276v-520z" />
<glyph unicode="&#x40a;" horiz-adv-x="2002" d="M172 0v1413h205v-561h586v561h202v-561h275q266 0 369.5 -95.5t103.5 -342.5q0 -127 -23.5 -209.5t-79 -132t-135.5 -69t-202 -19.5q-329 0 -510 16v684h-586v-684h-205zM1165 164l275 -2q162 0 214 50.5t52 205.5q0 77 -10 124t-39.5 81t-81 47.5t-135.5 13.5h-275v-520 z" />
<glyph unicode="&#x40b;" horiz-adv-x="1583" d="M49 1231v182h1100v-182h-449v-434q218 112 445 112q169 0 249.5 -78.5t80.5 -244.5v-586h-205v545q0 103 -43 143.5t-152 40.5q-99 0 -183 -21.5t-192 -74.5v-633h-206v1231h-445z" />
<glyph unicode="&#x40c;" horiz-adv-x="1239" d="M172 0v1413h205v-434q0 -64 -15 -160h142q145 0 239 134q67 95 148 329q11 30 45 131h207q-96 -281 -128 -356q-80 -189 -177 -260q-65 -47 -152 -56v-8q52 -5 95 -22.5t76.5 -41.5t65.5 -67t55.5 -85t52 -111t50.5 -128.5t55 -153.5q28 -81 44 -124h-215 q-103 295 -126 351q-73 179 -153 243q-71 58 -176 59h-148q15 -73 15 -145v-508h-205zM485 1579l363 299l110 -152l-407 -239z" />
<glyph unicode="&#x40d;" horiz-adv-x="1421" d="M172 0v1413h197v-987q0 -97 -13 -174h13q30 83 77 160l590 1001h213v-1413h-198v997q0 102 12 168h-12q-33 -91 -74 -159l-594 -1006h-211zM348 1726l111 152l362 -299l-65 -92z" />
<glyph unicode="&#x40e;" horiz-adv-x="1161" d="M39 1413h211l274 -801q10 -30 41 -30h78l291 831h211l-377 -1063q-23 -65 -44 -113t-50.5 -95.5t-62 -78.5t-76.5 -52t-95 -25q-54 -4 -132.5 5t-133.5 25l25 150q58 -4 90 -6t69 0t53.5 4.5t39 14t32 22.5t25.5 36t26 48t27 65l23 60h-76q-60 0 -94.5 24t-53.5 78z M268 1800l101 15q-2 -69 53.5 -107.5t159.5 -38.5q101 0 157 38.5t54 107.5l100 -15q9 -123 -75.5 -199.5t-235.5 -76.5t-237 77t-77 199z" />
<glyph unicode="&#x40f;" horiz-adv-x="1384" d="M172 0v1413h205v-1247h629v1247h206v-1413h-434l-10 -309h-139l-13 309h-444z" />
<glyph unicode="&#x410;" horiz-adv-x="1282" d="M18 0l443 1358q16 55 76 55h208q27 0 47.5 -14.5t26.5 -40.5l445 -1358h-211l-131 426h-564l-131 -426h-209zM414 604h452l-164 537q-5 19 -17 57t-17 57h-56l-32 -114z" />
<glyph unicode="&#x411;" horiz-adv-x="1228" d="M172 0v1413q263 14 444 14q185 0 435 -14l-17 -172h-655v-428h278q266 0 369.5 -92t103.5 -328q0 -80 -11 -141.5t-30 -105t-53.5 -73.5t-71.5 -48t-95 -27.5t-112.5 -12.5t-135.5 -3q-239 0 -445 18h-4zM377 160l280 -2q85 0 134 9.5t80.5 38t42 74t10.5 123.5 q0 74 -10 118.5t-40 76t-81.5 43.5t-135.5 12h-278z" />
<glyph unicode="&#x412;" horiz-adv-x="1273" d="M172 0v1413q176 17 471 17q135 0 221.5 -16.5t145 -59t82.5 -113t24 -180.5q0 -154 -56.5 -233t-182.5 -91v-8q153 -13 217.5 -106.5t64.5 -270.5q0 -110 -24.5 -180.5t-81 -112.5t-139 -58.5t-209.5 -16.5q-346 0 -533 16zM373 160l301 -2q161 0 219.5 46t58.5 183 q0 155 -61.5 209.5t-228.5 56.5h-289v-493zM373 811h286q148 0 204.5 46.5t56.5 178.5q0 130 -61.5 174.5t-225.5 44.5h-260v-444z" />
<glyph unicode="&#x413;" horiz-adv-x="1060" d="M168 0v1139q0 124 75 201t191 77q406 0 588 -18l-8 -158h-510q-72 0 -101.5 -31t-29.5 -110v-1100h-205z" />
<glyph unicode="&#x414;" horiz-adv-x="1433" d="M45 166h139q169 370 201 973q5 128 85 201t218 73h508v-1247h174v-475h-139l-21 309h-1005l-19 -309h-141v475zM381 166h610v1081h-266q-74 0 -105.5 -31t-37.5 -108q-20 -316 -64 -535.5t-137 -406.5z" />
<glyph unicode="&#x415;" horiz-adv-x="1148" d="M160 250v913q0 117 76 185.5t206 68.5q421 0 607 -16l-9 -160h-563q-62 0 -87 -29.5t-25 -101.5v-283h596v-165h-596v-361q0 -72 25 -101.5t87 -29.5h563l9 -158q-186 -16 -607 -16q-131 0 -206.5 68.5t-75.5 185.5z" />
<glyph unicode="&#x416;" horiz-adv-x="1871" d="M59 0q108 315 142 396q80 193 172 267q73 59 178 70v8q-44 5 -81.5 18.5t-69 37.5t-58 52.5t-51 70t-45 84t-42 100t-40.5 111t-43 124.5q-16 49 -25 74h209q95 -266 131 -345q79 -172 171 -223q49 -26 108 -26h139q-12 76 -12 160v434h194v-434q0 -96 -10 -160h127 q49 0 90 16.5t75.5 53t62.5 78.5t57.5 109.5t52.5 128.5t56 152q13 37 20 56h209q-96 -282 -131 -363q-81 -188 -181 -257q-63 -43 -145 -52v-8q54 -5 98 -23t80 -46t67.5 -70t58 -92.5t53 -117.5t52.5 -139.5t57 -164.5q18 -52 27 -80h-217q-109 304 -130 354 q-74 181 -151 244q-64 54 -157 55h-133q12 -73 12 -145v-508h-194v508q0 59 14 145h-143q-43 0 -79.5 -12t-66.5 -34t-57 -57.5t-50.5 -78.5t-48 -101.5t-48 -122t-52.5 -144.5q-24 -67 -37 -103h-215z" />
<glyph unicode="&#x417;" horiz-adv-x="1128" d="M72 33l18 147q230 -28 440 -28q157 0 215 47t58 188q0 153 -62.5 208.5t-224.5 55.5h-242v162h242q142 0 196 46.5t54 176.5q0 135 -58.5 181.5t-215.5 46.5q-129 0 -369 -25l-17 158q179 33 398 33q134 0 219.5 -16.5t143 -59t81 -113t23.5 -180.5q0 -154 -56.5 -233 t-181.5 -91v-8q151 -13 215 -106.5t64 -270.5q0 -109 -24 -180t-80.5 -113t-137.5 -58.5t-205 -16.5q-293 0 -493 49z" />
<glyph unicode="&#x418;" horiz-adv-x="1421" d="M172 0v1413h197v-987q0 -78 -13 -174h11q40 96 79 160l590 1001h213v-1413h-198v997q0 102 12 168h-12q-27 -75 -74 -159l-594 -1006h-211z" />
<glyph unicode="&#x419;" horiz-adv-x="1421" d="M172 0v1413h197v-987q0 -97 -13 -174h13q30 83 77 160l590 1001h213v-1413h-198v997q0 102 12 168h-12q-33 -91 -74 -159l-594 -1006h-211zM401 1810h150q0 -86 42.5 -132t121.5 -46t120.5 45.5t41.5 132.5h149q9 -124 -76 -205t-235 -81t-236.5 81t-77.5 205z" />
<glyph unicode="&#x41a;" horiz-adv-x="1239" d="M172 0v1413h205v-434q0 -64 -15 -160h142q145 0 239 134q67 95 148 329q11 30 45 131h207q-96 -281 -128 -356q-80 -189 -177 -260q-65 -47 -152 -56v-8q52 -5 95 -22.5t76.5 -41.5t65.5 -67t55.5 -85t52 -111t50.5 -128.5t55 -153.5q28 -81 44 -124h-215 q-103 295 -126 351q-73 179 -153 243q-71 58 -176 59h-148q15 -92 15 -145v-508h-205z" />
<glyph unicode="&#x41b;" horiz-adv-x="1341" d="M20 156q72 20 121.5 59.5t81.5 112.5q53 126 78 284t55 533q12 132 86 200t207 68h520v-1413h-206v1247h-261q-69 0 -104 -34t-41 -105q-16 -181 -23 -251t-20 -183t-24.5 -166t-30 -117t-43.5 -119q-124 -282 -379 -276z" />
<glyph unicode="&#x41c;" horiz-adv-x="1804" d="M145 0l54 1329q2 40 23.5 62t60.5 22h227q64 0 86 -70l240 -827q26 -95 47 -190h37q19 91 49 192l237 825q22 70 90 70h224q39 0 60.5 -22t23.5 -62l57 -1329h-205l-49 1243h-41l-287 -1005q-18 -70 -88 -70h-178q-72 0 -90 70l-289 1005h-39l-47 -1243h-203z" />
<glyph unicode="&#x41d;" horiz-adv-x="1372" d="M172 0v1413h205v-571h616v571h207v-1413h-207v666h-616v-666h-205z" />
<glyph unicode="&#x41e;" horiz-adv-x="1370" d="M121 707q0 211 29 349t97 225t173 123t264 36q213 0 334 -68.5t176 -226t55 -438.5t-55 -439t-176 -226.5t-334 -68.5q-212 0 -332.5 68.5t-175.5 227t-55 438.5zM336 707q0 -213 32.5 -330.5t107 -169t208.5 -51.5q135 0 210 51.5t107.5 169t32.5 330.5q0 160 -17 263 t-58.5 168.5t-107 92t-167.5 26.5q-101 0 -166 -26.5t-106.5 -92t-58.5 -168.5t-17 -263z" />
<glyph unicode="&#x41f;" horiz-adv-x="1374" d="M172 0v1413h1030v-1413h-205v1247h-620v-1247h-205z" />
<glyph unicode="&#x420;" horiz-adv-x="1212" d="M172 0v1413q185 19 494 19q134 0 218.5 -20.5t140.5 -73t78.5 -136.5t22.5 -217q0 -134 -22 -219t-76 -137t-134 -72t-206 -20q-151 0 -309 18v-555h-207zM379 713h280q102 1 156.5 24.5t79.5 81t25 166.5q0 159 -55.5 214.5t-205.5 55.5q-202 0 -280 -2v-540z" />
<glyph unicode="&#x421;" horiz-adv-x="1171" d="M121 707q0 205 29 342t96.5 225t172 126t261.5 38q131 0 214.5 -9t176.5 -32l-20 -158q-164 16 -371 16q-132 0 -205.5 -51t-106 -168.5t-32.5 -328.5q0 -127 11 -217t35 -155.5t65 -103.5t97 -55.5t136 -17.5q258 0 399 22l21 -155q-173 -50 -420 -50 q-209 0 -329.5 71.5t-175 229.5t-54.5 431z" />
<glyph unicode="&#x422;" horiz-adv-x="1196" d="M49 1231v182h1100v-182h-449v-1231h-206v1231h-445z" />
<glyph unicode="&#x423;" horiz-adv-x="1161" d="M39 1413h209l274 -801q13 -30 43 -30h78l291 831h209l-375 -1063q-30 -83 -57.5 -139.5t-66.5 -109.5t-89.5 -81.5t-114.5 -33.5q-54 -4 -132.5 5t-133.5 25l23 150q59 -4 91 -6t69 0t54 4.5t39.5 14t32 22.5t25 36t25 48t26.5 65l23 60h-74q-61 0 -95.5 23.5t-54.5 78.5 z" />
<glyph unicode="&#x424;" horiz-adv-x="1683" d="M94 721q0 165 33.5 275.5t111.5 183t198.5 106.5t301.5 41v197h203l2 -197q180 -7 300.5 -41t198.5 -107t111.5 -183.5t34.5 -274.5q-1 -161 -35 -269t-111.5 -180t-198 -106t-300.5 -41v-197h-205v197q-241 9 -380 69.5t-202 186t-63 340.5zM305 721q0 -159 40.5 -246.5 t135 -129t267.5 -48.5v860q-131 -5 -213.5 -28t-135 -75t-73.5 -130.5t-21 -202.5zM936 297q171 7 265 49t135 129.5t42 245.5q-1 163 -42 253.5t-135 133t-265 49.5v-860z" />
<glyph unicode="&#x425;" horiz-adv-x="1261" d="M47 0l387 731l-360 682h219l309 -602h53l310 602h223l-363 -682l389 -731h-223l-338 655h-49l-336 -655h-221z" />
<glyph unicode="&#x426;" horiz-adv-x="1423" d="M172 0v1413h205v-1247h602v1247h207v-1247h172v-475h-139l-21 309h-1026z" />
<glyph unicode="&#x427;" horiz-adv-x="1288" d="M119 831v582h205v-541q-2 -96 42.5 -139t147.5 -43q101 0 190 22t209 76v625h205v-1413h-205v633q-117 -63 -242.5 -94t-230.5 -31q-164 0 -242.5 79t-78.5 244z" />
<glyph unicode="&#x428;" horiz-adv-x="1914" d="M172 0v1413h201v-1247h485v1247h199v-1247h485v1247h201v-1413h-1571z" />
<glyph unicode="&#x429;" horiz-adv-x="1966" d="M172 0v1413h201v-1247h479v1247h199v-1247h479v1247h201v-1247h172v-475h-140l-20 309h-1571z" />
<glyph unicode="&#x42a;" horiz-adv-x="1531" d="M47 1231v182h649v-559h275q265 0 368 -96t103 -344q0 -127 -23.5 -209.5t-78.5 -132t-135.5 -69t-203.5 -19.5q-329 0 -512 16v1231h-442zM696 164l275 -2q161 0 212.5 51t51.5 205q0 77 -10 124t-39 81t-80.5 47.5t-134.5 13.5h-275v-520z" />
<glyph unicode="&#x42b;" horiz-adv-x="1746" d="M172 0v1413h205v-559h278q266 0 369.5 -96.5t103.5 -343.5q0 -127 -23.5 -209.5t-79 -132t-135.5 -69t-202 -19.5q-329 0 -512 16h-4zM377 164l278 -2q111 0 167 22t78 75t22 159q0 77 -10.5 124t-39.5 81t-81 47.5t-136 13.5h-278v-520zM1372 0v1413h205v-1413h-205z " />
<glyph unicode="&#x42c;" horiz-adv-x="1218" d="M172 0v1413h205v-559h278q266 0 369.5 -96.5t103.5 -343.5q0 -127 -23.5 -209.5t-79 -132t-135.5 -69t-202 -19.5q-329 0 -512 16h-4zM377 164l278 -2q111 0 167 22t78 75t22 159q0 77 -10.5 124t-39.5 81t-81 47.5t-136 13.5h-278v-520z" />
<glyph unicode="&#x42d;" horiz-adv-x="1183" d="M82 25l20 155q144 -20 390 -20q101 0 167.5 25t110 85.5t62 156t20.5 241.5h-598v159l596 2q-12 236 -92.5 330t-265.5 94q-210 0 -377 -16l-21 160q168 41 395 41q161 0 269 -38t177 -126t98.5 -225t29.5 -342t-29.5 -342t-98.5 -225.5t-177 -126.5t-269 -38 q-240 0 -407 50z" />
<glyph unicode="&#x42e;" horiz-adv-x="1910" d="M174 0v1413h205v-596h309q9 236 66 371t168.5 193.5t300.5 58.5q160 0 265.5 -36t174.5 -123t98 -225t29 -349q0 -280 -55.5 -438.5t-177 -227t-334.5 -68.5q-146 0 -243.5 33.5t-163.5 113.5t-96 208.5t-34 322.5h-307v-651h-205zM889 707q0 -213 31 -330.5t102.5 -169 t200.5 -51.5q134 0 208.5 51.5t107.5 169t34 330.5q-1 160 -18 263t-59 168.5t-107 92t-166 26.5q-97 0 -159.5 -26.5t-102.5 -92t-56 -168.5t-16 -263z" />
<glyph unicode="&#x42f;" horiz-adv-x="1259" d="M84 0l125 432q26 88 80 137t119 64l-2 10q-142 20 -204.5 112t-60.5 263q0 223 105.5 318.5t349.5 95.5q308 0 491 -19v-1413h-204v567q-74 -2 -285 -2q-71 0 -114 -33t-64 -108l-119 -424h-217zM346 1006q0 -138 57 -201.5t193 -63.5h287v512q-78 2 -283 2 q-143 0 -198 -51.5t-56 -197.5z" />
<glyph unicode="&#x430;" horiz-adv-x="1136" d="M102 264v105q0 120 74.5 184.5t210.5 64.5h401v78q-2 93 -43 127.5t-155 34.5q-116 0 -424 -24l-19 145q261 47 486 47q181 0 267.5 -74t86.5 -256v-696h-158l-20 160q-70 -72 -173 -125t-226 -53q-140 0 -224 74t-84 208zM303 289q0 -73 35.5 -106t112.5 -33 q75 0 166 35t171 106v178h-364q-66 -3 -93.5 -35t-27.5 -92v-53z" />
<glyph unicode="&#x431;" horiz-adv-x="1181" d="M139 602q0 98 3.5 172.5t13.5 149.5t27 131t45 109t67.5 91t93.5 69t123 52q59 18 149 32.5t165 36t149 66.5l47 -155q-75 -46 -144.5 -67.5t-158 -35t-141.5 -28.5q-70 -20 -121 -54t-80.5 -78.5t-45.5 -86.5t-24 -93q-14 -81 -20 -147h4q16 34 33 59.5t48 54t69.5 47 t97 30.5t131.5 12q220 0 309.5 -111.5t89.5 -368.5q0 -127 -20.5 -216t-71.5 -159t-143.5 -104.5t-229.5 -34.5q-65 0 -119 7.5t-96.5 24t-77 36.5t-59.5 50.5t-44 61t-31 73.5t-20 81.5t-11.5 91t-5 97t-1.5 104.5zM344 487q0 -196 58 -271t202 -75q145 0 201.5 74 t56.5 270q0 183 -52 249.5t-192 66.5q-85 0 -140 -19t-84 -61.5t-39.5 -96.5t-10.5 -137z" />
<glyph unicode="&#x432;" horiz-adv-x="1136" d="M156 -2v999q168 13 417 13q238 0 330 -56t92 -211q0 -107 -51 -162.5t-164 -64.5v-6q135 -10 192.5 -74.5t57.5 -187.5q0 -151 -90 -206.5t-311 -55.5q-299 0 -473 12zM342 143l256 -2q132 0 182.5 30.5t50.5 117.5t-53.5 121t-189.5 34h-246v-301zM342 586h246 q124 0 171.5 28.5t47.5 110.5q0 77 -53 104t-191 27q-46 0 -120 1t-101 1v-272z" />
<glyph unicode="&#x433;" horiz-adv-x="956" d="M152 0v784q0 222 227 222q361 0 534 -19l-6 -139h-444q-60 0 -87.5 -28t-27.5 -89v-731h-196z" />
<glyph unicode="&#x434;" horiz-adv-x="1216" d="M57 160h121q113 243 141 602q15 237 267 237h418v-839h143v-455h-131l-17 295h-794l-17 -295h-131v455zM356 160h459v686h-197q-111 0 -120 -117q-25 -345 -142 -569z" />
<glyph unicode="&#x435;" horiz-adv-x="1112" d="M109 502q0 197 49.5 312t149 163.5t265.5 48.5q227 0 332 -84t107 -252q0 -138 -61 -212.5t-183 -74.5h-449q7 -81 27 -132.5t58.5 -80t87.5 -39t126 -10.5q124 0 351 25l18 -131q-68 -30 -181 -45t-214 -15q-262 0 -372.5 119.5t-110.5 407.5zM315 557h400q100 0 96 133 q0 92 -50.5 130t-176.5 38q-101 0 -156 -26t-82 -90.5t-31 -184.5z" />
<glyph unicode="&#x436;" horiz-adv-x="1628" d="M66 0q39 113 58 164t49.5 122.5t53.5 100.5t58.5 63.5t76 48t95.5 19.5v6q-59 7 -105 32t-74.5 48.5t-64 96.5t-51.5 113.5t-59 160.5l-9 24h199q25 -69 40 -107t36.5 -88.5t37.5 -76.5t38.5 -56t44.5 -44t50.5 -23.5t61.5 -9.5h137q-10 46 -10 115v290h176v-290 q0 -69 -10 -115h129q29 0 54 5.5t47.5 21t39.5 30.5t36 46.5t32 55.5t32.5 71.5t32 80t35.5 94.5h201q-81 -223 -115 -291q-60 -115 -142 -155q-45 -22 -106 -29v-6q54 -6 94.5 -19.5t76 -48t58.5 -63.5t54 -100.5t50 -123t59 -163.5h-203q-92 234 -121 292 q-54 104 -118 134q-38 17 -89 18h-137q10 -55 10 -94v-350h-176v350q0 39 10 94h-145q-46 -1 -80.5 -15.5t-62 -43t-54 -78t-52.5 -111.5t-62 -152q-11 -29 -17 -44h-200z" />
<glyph unicode="&#x437;" horiz-adv-x="1026" d="M76 14l14 150q208 -17 379 -17q143 0 193.5 28.5t50.5 113.5t-52 116t-190 31h-248v146h246q126 0 170.5 29.5t44.5 113.5q0 75 -53 100t-203 25q-178 0 -303 -16l-16 149q130 35 315 35q131 0 212.5 -10.5t139.5 -40.5t81.5 -82t23.5 -135q0 -112 -47.5 -168t-161.5 -66 v-6q131 -10 188.5 -72.5t57.5 -189.5q0 -82 -24 -134t-80 -81t-133 -40t-198 -11q-254 0 -407 32z" />
<glyph unicode="&#x438;" horiz-adv-x="1204" d="M158 0v999h176v-634q0 -63 -6 -136h6q38 78 69 119l484 651h160v-999h-179v633q0 27 2.5 75.5t3.5 63.5h-4q-21 -58 -71 -123l-482 -649h-159z" />
<glyph unicode="&#x439;" horiz-adv-x="1204" d="M158 0v999h178v-634q0 -71 -8 -136h6q33 67 72 119l481 651h162v-999h-181v633q0 20 9 139h-7q-19 -51 -69 -123l-482 -649h-161zM283 1442h149q0 -86 42.5 -132t121.5 -46t120.5 45.5t41.5 132.5h149q9 -124 -76 -205.5t-235 -81.5t-236 81.5t-77 205.5z" />
<glyph unicode="&#x43a;" horiz-adv-x="1105" d="M158 0v999h196v-288q0 -50 -10 -115h125q40 0 73.5 9t59 23t50 43t42 56t38.5 75.5t36 89t39 107.5h205q-84 -224 -120 -292q-60 -113 -143 -154q-47 -23 -112 -31v-4q34 -4 62 -10t54 -19t45.5 -24.5t40.5 -36t35.5 -42.5t33 -55.5t30.5 -63t32 -77.5t33 -87.5 t37 -102.5h-206q-23 62 -34.5 92t-30.5 77.5t-29.5 69t-27.5 55.5t-29.5 48.5t-30.5 35.5t-35 29.5t-38.5 18.5t-45.5 13t-52 3h-135q8 -66 8 -92v-350h-196z" />
<glyph unicode="&#x43b;" horiz-adv-x="1161" d="M39 141q80 18 115.5 46t58.5 85q47 127 82 486q14 122 79 181.5t193 59.5h437v-999h-199v846h-201q-61 0 -87.5 -27t-35.5 -96q-2 -12 -8.5 -65t-9 -70.5t-9 -65t-10.5 -69.5t-11 -61.5t-13 -64.5t-14 -55t-17 -55q-73 -233 -330 -227z" />
<glyph unicode="&#x43c;" horiz-adv-x="1542" d="M135 0l39 926q0 73 76 73h201q57 0 75 -63l189 -551q25 -72 39 -143h30q2 8 16.5 62t22.5 81l189 551q22 63 78 63h202q35 0 54.5 -19t19.5 -54l41 -926h-184l-37 850h-33l-233 -674q-18 -63 -76 -63h-150q-56 0 -78 63l-231 674h-33l-35 -850h-182z" />
<glyph unicode="&#x43d;" horiz-adv-x="1198" d="M158 0v999h194v-393h494v393h196v-999h-196v455h-494v-455h-194z" />
<glyph unicode="&#x43e;" horiz-adv-x="1173" d="M109 498q0 287 109 407.5t370 120.5t369 -120t108 -408q0 -286 -108 -405.5t-369 -119.5t-370 119.5t-109 405.5zM317 498q0 -207 57.5 -283t213.5 -76q154 0 212 76.5t58 282.5q0 143 -25.5 219.5t-82.5 108.5t-162 32q-156 0 -213.5 -75t-57.5 -285z" />
<glyph unicode="&#x43f;" horiz-adv-x="1181" d="M158 0v999h866v-999h-193v840h-481v-840h-192z" />
<glyph unicode="&#x440;" horiz-adv-x="1202" d="M158 -408v1407h164l14 -153q78 81 192 130.5t222 49.5q179 0 260.5 -134t81.5 -398q0 -283 -92.5 -401t-290.5 -118q-201 0 -361 101q9 -103 6 -203v-281h-196zM354 201q11 -3 54.5 -14t55.5 -13.5t45.5 -10t51.5 -9.5t44.5 -4.5t51.5 -2.5q87 0 134.5 27.5t71.5 103.5 t24 218q0 199 -46.5 278.5t-158.5 79.5q-74 0 -149.5 -34.5t-178.5 -110.5v-508z" />
<glyph unicode="&#x441;" horiz-adv-x="1013" d="M109 500q0 289 108.5 407.5t370.5 118.5q199 0 330 -51l-25 -127q-153 10 -272 10q-116 0 -180 -31.5t-94 -108.5t-30 -218q0 -207 66.5 -283t237.5 -76q161 0 294 23l21 -133q-154 -56 -350 -56q-261 0 -369 118.5t-108 406.5z" />
<glyph unicode="&#x442;" horiz-adv-x="1011" d="M53 838v161h908v-161h-355v-838h-198v838h-355z" />
<glyph unicode="&#x443;" horiz-adv-x="1097" d="M37 999h211l248 -727q28 -77 36 -122h29l41 122l246 727h213l-389 -1046q-75 -208 -189 -297q-138 -104 -391 -66l19 140q159 -11 239 41q78 55 137 192l15 37h-43q-55 0 -70 51z" />
<glyph unicode="&#x444;" horiz-adv-x="1480" d="M106 498q0 268 125 390.5t418 135.5v410h182v-410q293 -13 418 -135.5t125 -390.5q0 -265 -125 -386.5t-418 -134.5v-385h-182v385q-293 13 -418 134.5t-125 386.5zM299 498q0 -187 79 -265.5t277 -89.5v713q-199 -11 -277.5 -89.5t-78.5 -268.5zM825 143 q198 11 277.5 89.5t79.5 265.5q0 189 -79.5 268t-277.5 90v-713z" />
<glyph unicode="&#x445;" horiz-adv-x="1097" d="M45 0l326 516l-301 483h213l243 -403h45l244 403h213l-301 -483l326 -516h-215l-271 442h-37l-270 -442h-215z" />
<glyph unicode="&#x446;" horiz-adv-x="1226" d="M158 0v999h194v-839h465v839h199l-2 -839h141v-455h-131l-18 295h-848z" />
<glyph unicode="&#x447;" horiz-adv-x="1099" d="M109 561v438h194v-370q0 -70 29.5 -98.5t99.5 -28.5q158 0 311 63v434h201l-4 -999h-197v408q-97 -31 -201 -49.5t-175 -18.5q-258 0 -258 221z" />
<glyph unicode="&#x448;" horiz-adv-x="1660" d="M158 0v999h190v-839h391v839h179v-839h393v839h192v-999h-1345z" />
<glyph unicode="&#x449;" horiz-adv-x="1718" d="M158 0v999h190v-839h393v839h177v-839h395v839h190v-839h144v-455h-131l-21 295h-1337z" />
<glyph unicode="&#x44a;" horiz-adv-x="1298" d="M51 844v155h539v-376h215q234 0 321.5 -69t87.5 -251q0 -93 -21 -154t-69 -96.5t-117 -50t-173 -14.5q-277 0 -437 12v844h-346zM590 145l215 -2q119 0 163 34t44 134q0 95 -43 130.5t-164 35.5h-215v-332z" />
<glyph unicode="&#x44b;" horiz-adv-x="1497" d="M158 0v999h190v-376h219q231 0 317.5 -69t86.5 -251q0 -181 -84 -248t-287 -67q-278 0 -438 12h-4zM348 145l219 -2q117 0 160 33.5t43 134.5q0 95 -42 130.5t-161 35.5h-219v-332zM1141 0v999h198v-999h-198z" />
<glyph unicode="&#x44c;" horiz-adv-x="1060" d="M158 0v999h190v-376h219q234 0 322 -69t88 -251q0 -181 -85.5 -248t-291.5 -67q-278 0 -438 12h-4zM348 145l219 -2q120 0 164.5 34t44.5 134q0 95 -43.5 130.5t-165.5 35.5h-219v-332z" />
<glyph unicode="&#x44d;" horiz-adv-x="1046" d="M82 20l18 140q162 -13 338 -13q160 0 224 60t71 227h-504v150h502q-10 151 -75.5 208.5t-217.5 55.5q-193 0 -325 -10l-21 137q77 23 150.5 31t195.5 8q277 0 387.5 -115t110.5 -405q0 -285 -111 -401t-387 -116q-215 0 -356 43z" />
<glyph unicode="&#x44e;" horiz-adv-x="1640" d="M158 0v999h196v-407h244q7 127 34 210t83 133t136 70.5t200 20.5q136 0 224 -24t147 -85t83.5 -160.5t24.5 -254.5q0 -152 -24.5 -250.5t-83.5 -159.5t-147 -85.5t-224 -24.5q-123 0 -204.5 22t-137 75t-81 139.5t-30.5 219.5h-244v-438h-196zM784 502q0 -203 55.5 -279 t207.5 -76q158 0 217 76t61 279q-1 205 -60.5 280.5t-217.5 75.5q-152 0 -207.5 -75t-55.5 -281z" />
<glyph unicode="&#x44f;" horiz-adv-x="1120" d="M76 0l90 301q12 41 45.5 70t69.5 40.5t77 16.5v8q-120 18 -171.5 85.5t-51.5 191.5q0 154 84 226.5t297 72.5q290 0 449 -15v-997h-195v365h-258q-64 0 -105 -25.5t-53 -71.5l-73 -268h-205zM328 684q0 -98 38.5 -135t157.5 -37h246v338l-250 2q-119 0 -155.5 -34 t-36.5 -134z" />
<glyph unicode="&#x451;" horiz-adv-x="1112" d="M109 502q0 197 49.5 312t149 163.5t265.5 48.5q227 0 332 -84t107 -252q0 -138 -61 -212.5t-183 -74.5h-449q7 -81 27 -132.5t58.5 -80t87.5 -39t126 -10.5q124 0 351 25l18 -131q-68 -30 -181 -45t-214 -15q-262 0 -372.5 119.5t-110.5 407.5zM309 1253v111q0 55 53 55 h68q51 0 51 -55v-111q0 -53 -51 -53h-68q-53 0 -53 53zM315 557h400q100 0 96 133q0 92 -50.5 130t-176.5 38q-101 0 -156 -26t-82 -90.5t-31 -184.5zM672 1253v111q0 55 55 55h66q25 0 39 -14.5t14 -40.5v-111q0 -53 -53 -53h-66q-29 0 -42 12.5t-13 40.5z" />
<glyph unicode="&#x452;" horiz-adv-x="1206" d="M53 1006v112h152v316h196l2 -316h369v-112h-369v-156q0 -89 -10 -174q223 151 430 151q272 0 275 -274v-563q0 -124 -54.5 -230.5t-148.5 -173.5l-111 86q61 73 88 147t27 169v508q0 85 -36 120t-126 35q-74 0 -150.5 -28.5t-185.5 -92.5v-530h-196v1006h-152z" />
<glyph unicode="&#x453;" horiz-adv-x="956" d="M152 0v784q0 222 227 222q361 0 536 -19l-8 -139h-444q-60 0 -87.5 -28t-27.5 -89v-731h-196zM410 1212l362 299l111 -151l-408 -240z" />
<glyph unicode="&#x454;" horiz-adv-x="1046" d="M111 494q0 290 110 405t387 115q122 0 195.5 -8t150.5 -31l-20 -137q-132 10 -326 10q-152 2 -217.5 -55.5t-75.5 -208.5h504v-150h-506q7 -166 71.5 -226.5t223.5 -60.5q176 0 338 13l19 -140q-141 -43 -357 -43q-276 0 -386.5 116t-110.5 401z" />
<glyph unicode="&#x455;" horiz-adv-x="1050" d="M102 748q0 165 88 222.5t306 55.5q232 -3 426 -35l-15 -143q-317 10 -381 10h-61.5t-49.5 -1.5t-41.5 -4.5t-30 -8t-24 -13t-14.5 -20t-10 -27t-2 -36q0 -63 27.5 -85.5t103.5 -43.5l12 -3l283 -69q125 -34 179 -94.5t54 -186.5q0 -74 -17 -125t-48.5 -83t-87 -50 t-120.5 -24.5t-161 -6.5q-210 0 -397 29l14 148q124 -11 340 -11q168 0 226.5 24t58.5 99q0 26 -7 44.5t-15.5 29.5t-30.5 21t-36.5 14.5t-47.5 13.5q-10 3 -15 4l-278 70q-124 32 -176 97t-52 188z" />
<glyph unicode="&#x456;" horiz-adv-x="526" d="M158 1253v115q0 57 59 57h94q58 0 58 -57v-115q0 -59 -58 -59h-94q-59 0 -59 59zM166 0v999h196v-999h-196z" />
<glyph unicode="&#x457;" horiz-adv-x="526" d="M-4 1253v111q0 55 53 55h66q53 0 53 -55v-111q0 -53 -53 -53h-66q-53 0 -53 53zM166 0v999h196v-999h-196zM358 1253v111q0 55 56 55h63q55 0 55 -55v-111q0 -53 -55 -53h-63q-56 0 -56 53z" />
<glyph unicode="&#x458;" horiz-adv-x="528" d="M53 -328q59 74 86 149t27 169v1009h199v-1009q0 -124 -54.5 -230.5t-148.5 -173.5zM160 1253v115q0 57 59 57h92q60 0 60 -57v-115q0 -59 -60 -59h-92q-59 0 -59 59z" />
<glyph unicode="&#x459;" horiz-adv-x="1656" d="M55 129q36 12 58.5 22t53.5 37.5t52 67.5q40 79 57.5 179t45.5 358q21 206 239 206h393v-374h213q231 0 318.5 -69t87.5 -251q0 -95 -21.5 -156.5t-70.5 -97t-117.5 -49.5t-173.5 -14q-264 0 -424 12v850h-150q-58 0 -83 -20.5t-31 -73.5q-25 -225 -46 -341t-57 -210 q-42 -113 -130.5 -165t-196.5 -46zM954 145l205 -2q123 0 168 33t45 137q0 95 -42.5 131.5t-162.5 36.5h-213v-336z" />
<glyph unicode="&#x45a;" horiz-adv-x="1669" d="M158 0v999h182v-376h438v376h187v-376h215q233 0 319 -68t86 -250q0 -183 -84.5 -250t-290.5 -67q-272 0 -432 12v479h-438v-479h-182zM965 145l215 -2q117 0 160.5 34t43.5 136q0 95 -42 130.5t-162 35.5h-215v-334z" />
<glyph unicode="&#x45b;" horiz-adv-x="1206" d="M53 1006v112h152v316h196l2 -316h369v-112h-369v-156q0 -89 -10 -174q223 151 430 151q136 0 205.5 -69.5t69.5 -204.5v-553h-199v496q0 86 -35.5 120.5t-126.5 34.5q-74 0 -150.5 -28.5t-185.5 -92.5v-530h-196v1006h-152z" />
<glyph unicode="&#x45c;" horiz-adv-x="1105" d="M158 0v999h196v-288q0 -66 -10 -115h125q35 0 64.5 5.5t54.5 20.5t45 30.5t40 45.5t34.5 55t33 70.5t32 80.5t34.5 95h205q-84 -224 -120 -292q-60 -113 -143 -154q-47 -23 -112 -31v-4q34 -4 62 -10t54 -19t45.5 -24.5t40.5 -36t35.5 -42.5t33 -55.5t30.5 -63t32 -77.5 t33 -87.5t37 -102.5h-206q-23 62 -34.5 92t-30.5 77.5t-29.5 69t-27.5 55.5t-29.5 48.5t-30.5 35.5t-35 29.5t-38.5 18.5t-45.5 13t-52 3h-135q8 -66 8 -92v-350h-196zM432 1212l363 299l110 -151l-407 -240z" />
<glyph unicode="&#x45d;" horiz-adv-x="1204" d="M158 0v999h178v-634q0 -71 -8 -136h6q33 67 72 119l481 651h162v-999h-181v633q0 20 9 139h-7q-19 -51 -69 -123l-482 -649h-161zM229 1360l111 151l362 -299l-65 -92z" />
<glyph unicode="&#x45e;" horiz-adv-x="1097" d="M37 999h211l250 -727q23 -65 34 -122h31q29 84 41 122l244 727h213l-387 -1046q-81 -211 -191 -297q-138 -104 -391 -66l19 140q159 -11 239 41q82 55 137 192l15 37h-41q-58 0 -70 51zM233 1444h150q0 -88 42 -134t124 -46q78 0 119 46t41 134h149q9 -124 -76 -206.5 t-233 -82.5q-151 0 -238 82.5t-78 206.5z" />
<glyph unicode="&#x45f;" horiz-adv-x="1191" d="M158 0v999h194l4 -839h480l2 839h198v-999h-358l-16 -338h-134l-16 338h-354z" />
<glyph unicode="&#x490;" horiz-adv-x="1075" d="M168 0v1139q0 124 75 201t191 77q300 0 445 -14l22 321h133v-342l-8 -141h-522q-72 0 -101.5 -31t-29.5 -110v-1100h-205z" />
<glyph unicode="&#x491;" horiz-adv-x="960" d="M154 0v784q0 222 227 222q239 0 385 -7l20 299h132v-311l-9 -139h-446q-59 0 -86 -28t-27 -89v-731h-196z" />
<glyph unicode="&#x4b0;" horiz-adv-x="1198" d="M31 1413h219l282 -579q21 -42 62 -164h16q29 97 62 161l282 582h213l-424 -844h261l2 -120h-304v-449h-204v449h-301v120h262z" />
<glyph unicode="&#x4b1;" horiz-adv-x="1204" d="M33 999h217l282 -573q31 -63 62 -162h16q31 99 62 162l282 573h217l-428 -839h265v-125h-303v-443h-203v443h-305v125h264z" />
<glyph unicode="&#x4b6;" horiz-adv-x="1349" d="M119 831v582h207v-541q-3 -98 42.5 -142t151.5 -44q101 0 188.5 22t206.5 78v627h205v-1272h168v-450h-139l-21 309h-213v621q-118 -57 -241.5 -85t-224.5 -28q-169 0 -249.5 79.5t-80.5 243.5z" />
<glyph unicode="&#x4b7;" horiz-adv-x="1155" d="M109 561v438h194v-370q0 -70 29.5 -98.5t99.5 -28.5q158 0 311 63v434h201l-4 -839h143v-455h-131l-18 295h-191v408q-97 -31 -201 -49.5t-175 -18.5q-258 0 -258 221z" />
<glyph unicode="&#x4ba;" horiz-adv-x="1290" d="M172 0v1413h205v-618q112 54 239.5 82t225.5 28q168 0 248.5 -79t80.5 -244v-582h-204v541q2 99 -44 142.5t-153 43.5q-99 0 -190.5 -22t-202.5 -76v-629h-205z" />
<glyph unicode="&#x4c0;" horiz-adv-x="550" d="M174 0v1413h205v-1413h-205z" />
<glyph unicode="&#x2000;" horiz-adv-x="939" />
<glyph unicode="&#x2001;" horiz-adv-x="1878" />
<glyph unicode="&#x2002;" horiz-adv-x="939" />
<glyph unicode="&#x2003;" horiz-adv-x="1878" />
<glyph unicode="&#x2004;" horiz-adv-x="626" />
<glyph unicode="&#x2005;" horiz-adv-x="469" />
<glyph unicode="&#x2006;" horiz-adv-x="313" />
<glyph unicode="&#x2007;" horiz-adv-x="313" />
<glyph unicode="&#x2008;" horiz-adv-x="234" />
<glyph unicode="&#x2009;" horiz-adv-x="375" />
<glyph unicode="&#x200a;" horiz-adv-x="104" />
<glyph unicode="&#x2010;" d="M141 442v152h623v-152h-623z" />
<glyph unicode="&#x2011;" d="M141 442v152h623v-152h-623z" />
<glyph unicode="&#x2012;" d="M141 442v152h623v-152h-623z" />
<glyph unicode="&#x2013;" horiz-adv-x="1200" d="M141 442v152h918v-152h-918z" />
<glyph unicode="&#x2014;" horiz-adv-x="1820" d="M141 442v152h1536v-152h-1536z" />
<glyph unicode="&#x2018;" horiz-adv-x="452" d="M127 1073v119q3 169 78 301l92 -25q-21 -114 -21 -229q26 0 40.5 -15.5t13.5 -41.5v-109q-1 -38 -18.5 -52.5t-57.5 -14.5h-57q-40 0 -55 14.5t-15 52.5z" />
<glyph unicode="&#x2019;" horiz-adv-x="446" d="M119 1303v110q3 36 20 51t56 15h57q41 0 56.5 -14.5t13.5 -51.5l2 -121q-3 -160 -78 -301l-94 25q22 107 22 229q-26 0 -40.5 15.5t-14.5 42.5z" />
<glyph unicode="&#x201a;" horiz-adv-x="475" d="M135 59v111q1 36 19 51t57 15h57q41 0 56.5 -14.5t13.5 -51.5l2 -121q-3 -163 -78 -301l-94 25q22 123 22 229q-26 0 -40.5 15.5t-14.5 41.5z" />
<glyph unicode="&#x201c;" horiz-adv-x="780" d="M127 1073v119q3 169 78 301l92 -25q-21 -114 -21 -229q26 0 40.5 -15.5t13.5 -41.5v-109q-1 -38 -18.5 -52.5t-57.5 -14.5h-57q-40 0 -55 14.5t-15 52.5zM455 1192q3 165 77 301l95 -25q-23 -109 -23 -229q26 0 40.5 -15.5t14.5 -41.5l-2 -109q-1 -38 -18 -52.5 t-57 -14.5h-58q-40 0 -54 14.5t-13 52.5z" />
<glyph unicode="&#x201d;" horiz-adv-x="774" d="M119 1303v110q3 36 20 51t56 15h57q41 0 56.5 -14.5t13.5 -51.5l2 -121q-3 -160 -78 -301l-94 25q22 107 22 229q-26 0 -40.5 15.5t-14.5 42.5zM446 1303v110q3 36 20 51t56 15h60q40 0 54.5 -14.5t12.5 -51.5l2 -121q-3 -160 -78 -301l-94 25q23 112 23 229 q-26 0 -41 16t-15 42z" />
<glyph unicode="&#x201e;" horiz-adv-x="802" d="M135 59v111q1 36 19 51t57 15h57q40 0 55.5 -14.5t14.5 -51.5l2 -121q-3 -163 -78 -301l-94 25q22 123 22 229q-26 0 -40.5 15.5t-14.5 41.5zM463 59v111q3 36 20 51t56 15h57q40 0 55.5 -14.5t14.5 -51.5l2 -121q-3 -163 -78 -301l-94 25q22 123 22 229 q-26 0 -40.5 15.5t-14.5 41.5z" />
<glyph unicode="&#x2022;" horiz-adv-x="747" d="M180 539v26q0 98 40.5 137t144.5 39h26q98 0 137 -39t39 -137v-26q0 -104 -39 -144.5t-137 -40.5h-26q-104 0 -144.5 40.5t-40.5 144.5z" />
<glyph unicode="&#x2026;" horiz-adv-x="1761" d="M127 74v108q0 40 16 56t56 16h65q40 0 56 -16t16 -56v-108q0 -41 -16 -57.5t-56 -16.5h-65q-40 0 -56 16.5t-16 57.5zM768 74v108q0 40 16 56t56 16h65q41 0 57.5 -16t16.5 -56v-108q0 -41 -16.5 -57.5t-57.5 -16.5h-65q-40 0 -56 16.5t-16 57.5zM1409 74v108 q0 39 17 55.5t57 16.5h65q40 0 56 -16t16 -56v-108q0 -41 -16 -57.5t-56 -16.5h-65q-40 0 -57 16.5t-17 57.5z" />
<glyph unicode="&#x202f;" horiz-adv-x="375" />
<glyph unicode="&#x2039;" horiz-adv-x="606" d="M80 492v45l328 405l104 -68l-250 -360l252 -367l-104 -69z" />
<glyph unicode="&#x203a;" horiz-adv-x="610" d="M92 147l252 367l-250 360l107 68l327 -405v-45l-329 -414z" />
<glyph unicode="&#x205f;" horiz-adv-x="469" />
<glyph unicode="&#x20ac;" horiz-adv-x="1304" d="M102 528v121h162v58q0 57 2 86h-162v120h170q31 267 164 396t398 129q188 0 342 -41l-21 -162q-164 29 -334 18q-148 -6 -227 -88.5t-104 -251.5h507l-14 -120h-506q-2 -29 -2 -91v-53h447l-15 -121h-424q22 -186 102 -275t236 -93q194 -10 359 22l22 -157 q-155 -50 -368 -50q-272 0 -404.5 135.5t-159.5 417.5h-170z" />
<glyph unicode="&#x2122;" horiz-adv-x="1980" d="M133 1309v116h670v-116h-264v-662h-142v662h-264zM899 647l31 723q3 55 53 55h145q40 0 56 -45l143 -432q4 -13 13 -51t16 -59h20q6 19 15.5 56.5t15.5 55.5l139 430q15 45 58 45h147q50 0 53 -55l31 -723h-131l-31 670h-24l-172 -529q-16 -45 -60 -45h-102q-44 0 -60 45 l-172 529h-24l-29 -670h-131z" />
<glyph unicode="&#x25fc;" horiz-adv-x="1003" d="M0 0v1004h1004v-1004h-1004z" />
</font>
</defs>
</svg>
